<svg width="667" height="668" viewBox="0 0 667 668" fill="none" xmlns="http://www.w3.org/2000/svg">
<path fill-rule="evenodd" clip-rule="evenodd" d="M206.21 34.0612L222.859 27.5568L265.886 80.9037C273.405 78.8749 280.984 77.2042 288.563 75.8915L305.272 9.47628L323.115 8.40186L347.523 72.3706C355.281 72.7883 363.039 73.5642 370.677 74.6979L407.08 16.6964L424.386 21.1718L427.847 89.616C435.068 92.4206 442.169 95.5235 449.092 98.9248L501.726 54.9465L516.765 64.5536L498.922 130.67C504.889 135.564 510.737 140.695 516.287 146.066L579.843 120.526L591.181 134.31L553.764 191.655C557.941 198.1 561.82 204.783 565.46 211.705L633.85 207.051L640.354 223.699L587.003 266.723C589.032 274.242 590.704 281.82 592.016 289.398L658.436 306.107L659.451 323.948L595.478 348.355C595.06 356.112 594.284 363.81 593.21 371.507L651.215 407.907L646.739 425.153L578.291 428.614C575.486 435.834 572.383 442.935 568.982 449.857L612.963 502.488L603.355 517.525L537.234 499.683C532.4 505.71 527.208 511.498 521.837 517.107L547.379 580.658L533.594 591.996L476.244 554.582C469.799 558.759 463.056 562.697 456.193 566.278L460.848 634.662L444.198 641.166L401.172 587.819C393.653 589.848 386.074 591.519 378.495 592.831L361.786 659.247L343.942 660.321L319.535 596.352C311.777 595.935 304.019 595.159 296.381 594.025L259.978 652.086L242.732 647.611L239.27 579.167C232.049 576.362 224.948 573.259 218.026 569.858L165.391 613.836L150.353 604.229L168.256 538.112C162.228 533.219 156.44 528.087 150.83 522.717L87.275 548.256L75.9366 534.472L113.354 477.127C109.176 470.683 105.297 463.939 101.657 457.077L33.2681 461.732L26.7634 445.083L80.114 402.06C78.085 394.481 76.4141 386.963 75.1012 379.384L8.68155 362.676L7.60742 344.834L71.5803 320.428C71.9981 312.671 72.7738 304.973 73.9076 297.275L15.8428 260.875L20.3185 243.63L88.8266 240.169C91.6314 232.949 94.7346 225.848 98.1361 218.926L54.1548 166.354L63.7628 151.317L129.884 169.219C134.777 163.192 139.909 157.404 145.34 151.794L119.799 88.2433L133.584 76.9058L190.933 114.32C197.378 110.143 204.121 106.205 210.984 102.624L206.329 34.24L206.21 34.0612ZM333.38 359.812C307.779 374.61 282.177 389.409 256.517 404.208C230.856 419.006 205.255 433.745 179.594 448.544C187.412 459.046 196.244 468.713 205.911 477.366C215.639 486.018 226.261 493.776 237.599 500.28C280.089 524.865 328.248 531.19 372.826 521.762C417.404 512.334 458.58 487.152 487.165 448.664C461.505 433.865 435.903 419.066 410.302 404.208C384.642 389.409 359.04 374.67 333.38 359.871V359.812ZM355.341 321.741C381.002 336.539 406.602 351.278 432.263 366.077C457.864 380.876 483.465 395.734 509.126 410.533C514.258 398.539 518.257 386.067 520.883 373.297C523.568 360.587 524.94 347.459 524.94 334.391C524.94 285.221 506.381 240.348 475.946 206.454C445.452 172.56 403.082 149.527 355.341 144.097V232.948C355.341 262.486 355.341 292.143 355.341 321.741ZM311.419 321.741C311.419 292.143 311.419 262.546 311.419 232.948C311.419 203.351 311.419 173.694 311.419 144.156C263.678 149.586 221.368 172.56 190.873 206.514C160.378 240.407 141.819 285.221 141.819 334.391C141.819 347.519 143.192 360.528 145.818 373.297C148.443 386.067 152.442 398.599 157.574 410.593C183.235 395.794 208.835 380.936 234.437 366.197C260.097 351.398 285.758 336.599 311.359 321.8L311.419 321.741Z" fill="url(#paint0_linear_196_8046)"/>
<path d="M490.984 442.1L337.139 353.308C334.811 351.995 331.947 351.995 329.619 353.308L175.834 442.04C173.984 443.114 172.671 444.964 172.253 447.053C171.836 449.141 172.253 451.349 173.566 453.08C181.682 464 190.932 474.084 200.958 482.975C211.162 492.105 222.262 500.101 233.899 506.785C264.035 524.209 298.349 533.458 333.081 533.458C346.926 533.458 360.83 532.026 374.436 529.102C422.177 519.017 464.368 492.046 493.252 453.08C494.505 451.349 495.042 449.141 494.564 447.053C494.147 444.964 492.834 443.114 490.984 442.04V442.1ZM371.333 514.363C358.742 517.048 345.911 518.361 333.081 518.361C300.975 518.361 269.287 509.828 241.418 493.716C230.676 487.57 220.412 480.171 210.983 471.757C203.822 465.372 197.079 458.331 190.932 450.812L333.439 368.584L476.005 450.872C449.569 483.214 412.748 505.651 371.393 514.423L371.333 514.363Z" fill="black"/>
<path d="M318.996 321.801V233.068V144.276C318.996 142.128 318.101 140.099 316.49 138.667C314.879 137.234 312.671 136.518 310.642 136.817C262.423 142.307 217.905 165.34 185.381 201.621C152.5 238.2 134.418 285.401 134.418 334.571C134.418 348.116 135.85 361.722 138.595 374.969C141.34 388.216 145.458 401.224 150.829 413.696C151.664 415.665 153.335 417.217 155.364 417.873C156.14 418.112 156.916 418.29 157.751 418.29C159.064 418.29 160.377 417.933 161.511 417.276L315.297 328.424C317.624 327.052 319.056 324.605 319.056 321.86L318.996 321.801ZM161.392 399.792C157.93 390.722 155.245 381.354 153.276 371.866C150.769 359.633 149.456 347.042 149.456 334.511C149.456 289.1 166.166 245.48 196.541 211.646C224.708 180.258 262.602 159.612 303.898 152.928V317.504L161.392 399.792Z" fill="black"/>
<path d="M665.894 305.808C665.715 302.526 663.388 299.722 660.225 298.946L598.52 283.431C597.625 278.837 596.61 274.242 595.476 269.707L645.067 229.726C647.633 227.638 648.528 224.177 647.335 221.134L640.83 204.485C639.636 201.442 636.832 199.592 633.311 199.711L569.815 204.008C567.488 199.831 565.161 195.773 562.714 191.835L597.505 138.547C599.295 135.802 599.116 132.222 597.028 129.656L585.689 115.872C583.601 113.306 580.08 112.411 577.036 113.664L517.957 137.354C514.555 134.191 511.034 131.029 507.454 128.045L524.044 66.5824C524.879 63.4197 523.626 60.0784 520.821 58.2882L505.783 48.6807C503.038 46.8905 499.397 47.1294 496.891 49.2179L448.016 90.0932C443.779 88.124 439.482 86.2145 435.186 84.484L431.963 20.8736C431.784 17.5916 429.516 14.7872 426.354 13.9518L409.048 9.41666C405.825 8.64092 402.543 9.89396 400.753 12.6986L366.916 66.5824C362.202 65.9856 357.547 65.5084 352.892 65.21L330.215 5.77674C329.022 2.67379 326.098 0.823599 322.756 0.942944L304.913 2.01736C301.631 2.19638 298.826 4.52331 298.05 7.68593L282.534 69.3872C277.939 70.2822 273.344 71.2967 268.809 72.4305L228.825 22.8429C226.737 20.277 223.216 19.3819 220.172 20.5753L203.523 27.0794C200.479 28.2728 198.51 31.3162 198.749 34.5982L203.105 98.1492C198.928 100.417 194.87 102.804 190.931 105.25L137.64 70.4612C134.835 68.671 131.255 68.8502 128.749 70.9387L114.963 82.2762C112.397 84.3647 111.502 87.8854 112.755 90.9287L136.506 149.945C133.343 153.346 130.181 156.867 127.137 160.507L65.6707 143.858C62.4482 143.023 59.1064 144.336 57.3758 147.08L47.7679 162.118C45.9776 164.863 46.2163 168.502 48.3049 171.009L89.1832 219.88C87.2138 224.117 85.3042 228.414 83.5736 232.71L19.9587 235.932C16.6765 236.111 13.8719 238.379 13.0364 241.541L8.50099 258.787C7.66553 261.949 8.97833 265.351 11.7831 267.081L65.6707 300.915C65.074 305.57 64.6563 310.284 64.2983 314.938L4.86065 337.614C1.81716 338.807 -0.152135 341.851 0.0268933 345.133L1.1012 362.915C1.28023 366.197 3.60749 369.001 6.77033 369.777L68.4755 385.292C69.3706 389.827 70.3852 394.481 71.519 399.016L21.9281 438.997C19.3621 441.085 18.4669 444.546 19.6604 447.59L26.1651 464.238C27.3586 467.281 30.0441 469.131 33.6844 469.012L97.2395 464.716C99.5072 468.833 101.835 472.89 104.341 476.889L69.5498 530.176C67.7595 532.921 67.9385 536.501 70.0271 539.067L81.3656 552.852C83.4542 555.417 86.9752 556.312 90.0187 555.059L149.098 531.31C152.5 534.532 156.02 537.635 159.661 540.678L143.071 602.14C142.176 605.303 143.489 608.704 146.293 610.435L161.332 620.042C164.136 621.832 167.717 621.594 170.224 619.505L219.098 578.63C223.335 580.599 227.632 582.508 231.929 584.239L235.151 647.85C235.33 651.131 237.598 653.936 240.761 654.771L258.007 659.247C261.17 660.082 264.512 658.769 266.302 655.965L300.139 602.021C304.793 602.618 309.508 603.095 314.163 603.453L336.839 662.887C337.973 665.811 340.778 667.72 343.881 667.72C344 667.72 344.18 667.72 344.299 667.72L362.142 666.646C365.424 666.467 368.229 664.14 369.005 660.977L384.521 599.276C389.056 598.381 393.651 597.367 398.246 596.233L438.229 645.82C440.318 648.386 443.779 649.281 446.882 648.088L463.532 641.584C466.575 640.391 468.545 637.347 468.306 634.065L463.95 570.514C468.127 568.247 472.185 565.86 476.124 563.413L529.415 598.202C532.16 599.992 535.8 599.813 538.306 597.725L552.091 586.387C554.658 584.299 555.553 580.778 554.299 577.735L530.608 518.719C533.771 515.317 536.874 511.797 539.918 508.157L601.384 524.746C604.666 525.641 607.948 524.268 609.679 521.524L619.287 506.486C621.077 503.741 620.838 500.101 618.75 497.595L577.872 448.723C579.841 444.487 581.751 440.19 583.481 435.894L647.096 432.672C650.378 432.493 653.183 430.225 654.018 427.062L658.494 409.817C659.33 406.654 658.017 403.253 655.212 401.522L601.324 367.688C601.921 362.974 602.398 358.32 602.697 353.666L662.134 330.99C665.178 329.797 667.147 326.813 666.968 323.531L665.954 305.689L665.894 305.808ZM592.731 341.433C589.926 342.507 588.076 345.132 587.897 348.056C587.479 355.396 586.763 362.975 585.629 370.493C585.212 373.477 586.584 376.401 589.091 377.952L642.441 411.428L640.71 417.992L577.752 421.155C574.768 421.334 572.143 423.184 571.068 425.988C568.383 432.91 565.339 439.892 562.057 446.635C560.744 449.32 561.162 452.483 563.072 454.81L603.473 503.144L599.832 508.873L539.022 492.463C536.098 491.688 533.055 492.702 531.205 494.969C526.431 500.817 521.418 506.546 516.226 511.857C514.137 514.005 513.541 517.167 514.674 519.912L538.127 578.331L532.876 582.628L480.182 548.197C477.675 546.586 474.453 546.586 471.946 548.197C465.8 552.195 459.235 556.014 452.432 559.594C449.806 560.967 448.195 563.831 448.434 566.755L452.73 629.59L446.405 632.096L406.839 583.046C404.93 580.718 401.827 579.704 399.022 580.48C391.622 582.449 384.222 584.119 377.001 585.373C374.077 585.91 371.69 588.058 370.974 590.982L355.638 652.027L348.894 652.444L326.456 593.607C325.382 590.803 322.816 588.953 319.832 588.774C312.432 588.356 304.853 587.58 297.334 586.506C296.976 586.506 296.618 586.447 296.26 586.447C293.694 586.447 291.247 587.76 289.874 589.967L256.396 643.314L249.831 641.584L246.669 578.63C246.549 575.646 244.64 573.02 241.835 571.946C234.913 569.261 227.93 566.218 221.187 562.936C218.501 561.623 215.339 561.981 213.011 563.95L164.674 604.349L158.945 600.708L175.356 539.902C176.131 537.038 175.177 533.935 172.849 532.085C167.001 527.371 161.332 522.299 155.961 517.108C153.812 515.019 150.65 514.363 147.905 515.497L89.4816 538.948L85.1849 533.697L119.558 480.946C121.17 478.44 121.17 475.218 119.558 472.771C115.5 466.446 111.681 459.882 108.16 453.259C106.788 450.633 104.102 449.141 100.999 449.26L38.1601 453.557L35.6536 447.232L84.7074 407.669C87.0348 405.819 88.0493 402.716 87.2735 399.852C85.3042 392.512 83.6334 385.053 82.3802 377.833C81.9027 374.909 79.6947 372.522 76.7706 371.806L15.7218 356.47L15.304 349.667L74.1448 327.231C76.8899 326.157 78.7995 323.591 78.9786 320.607C79.3963 313.208 80.1721 305.629 81.2463 298.111C81.664 295.187 80.2914 292.263 77.785 290.652L24.4344 257.175L26.1651 250.612L89.1236 247.449C92.1074 247.27 94.6735 245.42 95.8073 242.615C98.4927 235.693 101.536 228.712 104.818 221.969C106.131 219.284 105.773 216.121 103.804 213.794L63.403 165.459L67.0433 159.731L127.853 176.141C130.778 176.917 133.821 175.902 135.671 173.575C140.445 167.667 145.518 161.939 150.65 156.688C152.738 154.539 153.335 151.377 152.261 148.632L128.808 90.2127L134.06 85.9165L186.754 120.347C189.26 121.958 192.483 121.958 194.989 120.347C201.136 116.349 207.7 112.53 214.503 108.95C217.129 107.577 218.74 104.713 218.502 101.789L214.205 38.9545L220.531 36.448L260.096 85.4987C262.006 87.8259 265.109 88.8403 267.913 88.0646C275.254 86.0954 282.653 84.4842 289.934 83.1714C292.858 82.6344 295.245 80.4862 295.961 77.5622L311.298 16.5177L318.101 16.0999L340.539 74.9366C341.613 77.7412 344.179 79.6507 347.163 79.7701C354.563 80.1878 362.082 80.9038 369.602 81.9779C372.585 82.4553 375.45 81.023 377.061 78.5168L410.54 25.1702L417.104 26.9006L420.267 89.8547C420.386 92.8383 422.296 95.4638 425.1 96.5379C432.023 99.2232 439.005 102.207 445.748 105.548C448.374 106.861 451.597 106.503 453.864 104.594L502.202 64.1957L507.931 67.8356L491.52 128.642C490.744 131.506 491.759 134.609 494.027 136.459C499.875 141.232 505.604 146.245 510.915 151.436C513.063 153.525 516.226 154.122 518.971 152.988L577.394 129.537L581.691 134.788L547.317 187.538C545.706 190.044 545.646 193.267 547.317 195.773C551.375 202.038 555.135 208.543 558.715 215.286C560.088 217.911 562.773 219.343 565.877 219.284L628.716 215.047L631.162 221.372L582.109 260.935C579.781 262.785 578.767 265.888 579.542 268.752C581.512 276.091 583.123 283.491 584.436 290.771C584.913 293.695 587.121 296.082 589.986 296.798L651.035 312.134L651.452 318.936L592.611 341.373L592.731 341.433Z" fill="black"/>
<path d="M356.233 136.698C354.025 136.399 351.937 137.116 350.385 138.548C348.774 139.98 347.879 142.008 347.879 144.157V321.801C347.879 324.486 349.311 326.993 351.638 328.305L505.424 417.098C506.617 417.754 507.871 418.112 509.184 418.112C509.959 418.112 510.795 417.993 511.571 417.754C513.6 417.038 515.27 415.546 516.106 413.577C521.536 400.926 525.595 387.918 528.28 374.909C531.085 361.662 532.457 348.057 532.457 334.451C532.457 285.281 514.375 238.081 481.553 201.502C448.91 165.221 404.392 142.187 356.233 136.698ZM513.54 371.866C511.63 381.235 508.885 390.543 505.484 399.733L362.977 317.445V152.809C404.273 159.492 442.167 180.139 470.394 211.587C500.709 245.421 517.419 289.041 517.419 334.451C517.419 347.042 516.106 359.573 513.54 371.806V371.866Z" fill="black"/>
<path fill-rule="evenodd" clip-rule="evenodd" d="M232.887 334.452C232.887 389.947 277.942 434.94 333.441 434.94C388.94 434.94 433.936 389.887 433.936 334.392C433.936 278.897 388.88 233.904 333.381 233.904C277.882 233.904 232.887 278.957 232.887 334.452Z" fill="url(#paint1_linear_196_8046)"/>
<path d="M333.5 441.384C274.54 441.384 226.561 393.407 226.561 334.451C226.561 275.495 274.48 227.459 333.5 227.459C392.52 227.459 440.5 275.435 440.5 334.391C440.5 393.348 392.58 441.384 333.56 441.384H333.5ZM333.5 240.348C281.582 240.348 239.391 282.596 239.45 334.451C239.45 386.306 281.701 428.435 333.5 428.435C385.418 428.435 427.61 386.187 427.55 334.332C427.55 282.477 385.299 240.348 333.5 240.348Z" fill="black"/>
<path fill-rule="evenodd" clip-rule="evenodd" d="M260.875 334.452C260.875 374.492 293.398 407.013 333.501 407.013C373.603 407.013 406.067 374.492 406.067 334.392C406.067 294.292 373.544 261.831 333.441 261.831C293.398 261.831 260.875 294.352 260.875 334.452Z" fill="#A7A9AC"/>
<path d="M333.441 413.457C289.877 413.457 254.43 378.012 254.43 334.451C254.43 290.89 289.818 255.445 333.441 255.385C377.005 255.385 412.512 290.83 412.512 334.391C412.512 355.515 404.336 375.326 389.417 390.304C374.498 405.222 354.626 413.457 333.56 413.457H333.441ZM333.441 268.334C296.979 268.334 267.32 298.051 267.32 334.511C267.32 370.97 297.038 400.628 333.441 400.628C351.165 400.628 367.755 393.706 380.227 381.234C392.7 368.763 399.562 352.114 399.562 334.511C399.562 298.051 369.903 268.394 333.441 268.394V268.334Z" fill="black"/>
<path fill-rule="evenodd" clip-rule="evenodd" d="M317.088 334.452C317.088 343.462 324.428 350.802 333.439 350.802C342.51 350.802 349.79 343.462 349.79 334.452C349.79 325.441 342.45 318.102 333.439 318.102C324.428 318.102 317.088 325.441 317.088 334.452Z" fill="url(#paint2_linear_196_8046)"/>
<path d="M333.439 357.246C320.907 357.246 310.643 347.042 310.643 334.451C310.643 328.365 312.97 322.636 317.326 318.34C321.623 314.043 327.352 311.656 333.439 311.656C346.031 311.656 356.235 321.86 356.295 334.451C356.295 347.042 346.09 357.246 333.499 357.246H333.439ZM333.439 324.546C330.754 324.546 328.247 325.56 326.397 327.47C324.547 329.319 323.533 331.826 323.533 334.451C323.533 339.941 328.008 344.357 333.439 344.357C338.869 344.357 343.345 339.881 343.345 334.451C343.345 329.021 338.869 324.546 333.439 324.546Z" fill="black"/>
<defs>
<linearGradient id="paint0_linear_196_8046" x1="333.529" y1="8.40186" x2="333.529" y2="660.321" gradientUnits="userSpaceOnUse">
<stop stop-color="#4A86FF"/>
<stop offset="0.471218" stop-color="#2C5099"/>
<stop offset="1" stop-color="#4A86FF"/>
</linearGradient>
<linearGradient id="paint1_linear_196_8046" x1="333.411" y1="233.904" x2="333.411" y2="434.94" gradientUnits="userSpaceOnUse">
<stop stop-color="#4A86FF"/>
<stop offset="0.471218" stop-color="#2C5099"/>
<stop offset="1" stop-color="#4A86FF"/>
</linearGradient>
<linearGradient id="paint2_linear_196_8046" x1="333.439" y1="318.102" x2="333.439" y2="350.802" gradientUnits="userSpaceOnUse">
<stop stop-color="#4A86FF"/>
<stop offset="0.471218" stop-color="#2C5099"/>
<stop offset="1" stop-color="#4A86FF"/>
</linearGradient>
</defs>
</svg>
